<?xml version="1.0" encoding="UTF-8" standalone="no"?>
<!DOCTYPE svg PUBLIC "-//W3C//DTD SVG 1.1//EN" "http://www.w3.org/Graphics/SVG/1.1/DTD/svg11.dtd">
<svg width="100%" height="100%" viewBox="0 0 66 66" version="1.1" xmlns="http://www.w3.org/2000/svg" xmlns:xlink="http://www.w3.org/1999/xlink" xml:space="preserve" xmlns:serif="http://www.serif.com/" style="fill-rule:evenodd;clip-rule:evenodd;stroke-linejoin:round;stroke-miterlimit:2;">
    <g transform="matrix(1,0,0,1,-170.72,-217.465)">
        <g id="instagram" transform="matrix(1,0,0,1,-46.7446,-141.701)">
            <g transform="matrix(1,0,0,1,262.647,401.202)">
                <path d="M0,-19.005C-1.67,-19.005 -3.024,-20.359 -3.024,-22.029C-3.024,-23.7 -1.67,-25.054 0,-25.054C1.671,-25.054 3.024,-23.7 3.024,-22.029C3.024,-20.359 1.671,-19.005 0,-19.005M-12.646,3.12C-19.606,3.12 -25.269,-2.543 -25.269,-9.502C-25.269,-16.462 -19.606,-22.124 -12.646,-22.124C-5.687,-22.124 -0.024,-16.462 -0.024,-9.502C-0.024,-2.542 -5.687,3.12 -12.646,3.12M-2.784,-28.994L-22.509,-28.994C-27.827,-28.994 -32.138,-24.683 -32.138,-19.365L-32.138,0.36C-32.138,5.679 -27.827,9.989 -22.509,9.989L-2.784,9.989C2.534,9.989 6.846,5.679 6.846,0.36L6.846,-19.365C6.846,-24.683 2.534,-28.994 -2.784,-28.994" style="fill:white;fill-rule:nonzero;"/>
            </g>
            <g transform="matrix(-1,0,0,1,250.001,399.412)">
                <path d="M0.001,-15.425C4.26,-15.425 7.713,-11.972 7.713,-7.712C7.713,-3.452 4.261,0 0.001,0C-4.259,0 -7.712,-3.453 -7.712,-7.712C-7.712,-11.972 -4.259,-15.425 0.001,-15.425" style="fill:white;fill-rule:nonzero;"/>
            </g>
            <g transform="matrix(1,0,0,1,274.401,381.839)">
                <path d="M0,19.724C0,27.741 -6.522,34.263 -14.539,34.263L-34.264,34.263C-42.281,34.263 -48.803,27.741 -48.803,19.724L-48.803,-0.002C-48.803,-8.018 -42.281,-14.54 -34.264,-14.54L-14.539,-14.54C-6.522,-14.54 0,-8.018 0,-0.002L0,19.724ZM-11.257,-22.673L-37.557,-22.673C-48.25,-22.673 -56.937,-13.976 -56.937,-3.294L-56.937,23.005C-56.937,33.699 -48.25,42.397 -37.557,42.397L-11.257,42.397C-0.563,42.397 8.134,33.699 8.134,23.005L8.134,-3.294C8.134,-13.976 -0.563,-22.673 -11.257,-22.673" style="fill:white;fill-rule:nonzero;"/>
            </g>
        </g>
    </g>
</svg>
