<?xml version="1.0" encoding="UTF-8" standalone="no"?>
<!DOCTYPE svg PUBLIC "-//W3C//DTD SVG 1.1//EN" "http://www.w3.org/Graphics/SVG/1.1/DTD/svg11.dtd">
<svg width="100%" height="100%" viewBox="0 0 66 66" version="1.1" xmlns="http://www.w3.org/2000/svg" xmlns:xlink="http://www.w3.org/1999/xlink" xml:space="preserve" xmlns:serif="http://www.serif.com/" style="fill-rule:evenodd;clip-rule:evenodd;stroke-linejoin:round;stroke-miterlimit:2;">
    <g transform="matrix(1,0,0,1,-309.865,-56.2076)">
        <g transform="matrix(1,0,0,1,366.706,103.509)">
            <path d="M0,-29.532C-1.16,-27.798 -2.567,-26.253 -4.184,-24.94C-4.61,-24.595 -4.854,-24.087 -4.854,-23.547L-4.854,-23.386C-4.854,-20.025 -5.507,-16.503 -6.742,-13.203C-8.038,-9.74 -9.907,-6.61 -12.298,-3.898C-14.864,-0.987 -17.917,1.301 -21.371,2.901C-25.14,4.647 -29.312,5.531 -33.771,5.531C-38.867,5.531 -43.885,4.179 -48.283,1.619C-48.603,1.433 -48.776,1.056 -48.682,0.698C-48.586,0.335 -48.27,0.091 -47.895,0.091L-46.678,0.092C-42.774,0.092 -39.023,-1.049 -35.804,-3.211C-39.684,-3.841 -42.927,-6.617 -44.133,-10.383C-44.26,-10.781 -43.915,-11.17 -43.506,-11.092C-42.918,-10.979 -42.322,-10.922 -41.732,-10.922C-41.658,-10.922 -41.583,-10.923 -41.508,-10.925C-45.225,-12.623 -47.705,-16.393 -47.653,-20.631C-47.648,-21.047 -47.2,-21.307 -46.836,-21.105C-46.083,-20.687 -45.273,-20.374 -44.437,-20.176C-46.427,-22.135 -47.572,-24.823 -47.572,-27.676C-47.572,-29.537 -47.08,-31.366 -46.147,-32.965C-45.954,-33.297 -45.489,-33.333 -45.246,-33.035C-40.486,-27.197 -33.752,-23.599 -26.284,-22.905C-26.271,-22.904 -26.259,-22.903 -26.247,-22.903C-26.137,-22.903 -26.031,-22.951 -25.957,-23.035C-25.914,-23.083 -25.846,-23.184 -25.862,-23.33C-26.006,-24.598 -25.922,-25.902 -25.612,-27.204C-24.786,-30.676 -22.154,-33.49 -18.742,-34.549C-17.642,-34.89 -16.521,-35.063 -15.409,-35.063C-12.843,-35.063 -10.37,-34.13 -8.447,-32.436C-8.196,-32.214 -7.876,-32.092 -7.547,-32.092C-7.438,-32.092 -7.33,-32.105 -7.226,-32.132C-5.419,-32.589 -3.688,-33.304 -2.081,-34.257C-1.646,-34.515 -1.122,-34.098 -1.276,-33.616C-1.816,-31.928 -2.773,-30.415 -4.046,-29.206C-2.891,-29.481 -1.766,-29.86 -0.681,-30.341C-0.177,-30.564 0.306,-29.99 0,-29.532M-11.162,-47.301L-37.461,-47.301C-48.154,-47.301 -56.841,-38.603 -56.841,-27.921L-56.841,-1.621C-56.841,9.072 -48.154,17.769 -37.461,17.769L-11.162,17.769C-0.469,17.769 8.229,9.072 8.229,-1.621L8.229,-27.921C8.229,-38.603 -0.469,-47.301 -11.162,-47.301" style="fill:white;fill-rule:nonzero;"/>
        </g>
    </g>
</svg>
